<svg xmlns="http://www.w3.org/2000/svg" fill="currentColor" viewBox="0 0 32 32">
  <path d="M8.106 10.594c-1.542 2.315-1.35 5.325-.172 7.785l.086.175c.019.036.036.074.056.11.01.022.023.043.034.064.02.04.04.076.061.115.037.067.074.134.113.201l.064.11c.042.072.086.143.13.214.02.03.037.06.056.09.062.095.124.19.19.284 0 .003.003.005.005.008l.031.044a9.103 9.103 0 0 0 .397.53l.06.076c.073.09.147.178.222.265l.005.004.009.01a11.383 11.383 0 0 0 .477.509l.074.073c.081.08.163.158.247.234l.003.004c.015.013.03.025.043.038l.224.197.093.078a10.505 10.505 0 0 0 .496.388c.026.02.051.039.077.057l.02.016c.068.048.136.094.204.14l.088.061c.105.07.212.138.32.204.028.018.058.035.087.052.08.048.159.094.24.14.043.025.088.048.132.071.057.032.113.063.171.093l.04.02.07.036c.09.044.18.088.271.13l.057.027c.105.048.21.094.317.138l.077.031c.098.04.198.08.298.116l.038.014c.11.04.221.077.333.113l.08.025c.114.036.227.079.344.102 7.46 1.42 9.626-4.68 9.626-4.68-1.82 2.475-5.05 3.128-8.11 2.4-.116-.026-.229-.064-.342-.099l-.085-.027a10.006 10.006 0 0 1-.664-.24l-.082-.034a9.065 9.065 0 0 1-.313-.136l-.062-.029a12.882 12.882 0 0 1-.264-.128l-.076-.038c-.07-.035-.137-.073-.205-.11-.045-.024-.091-.048-.136-.074a7.667 7.667 0 0 1-.245-.143l-.083-.048a11.97 11.97 0 0 1-.319-.204l-.086-.06a9.462 9.462 0 0 1-.227-.157c-.024-.018-.048-.037-.073-.054a12.659 12.659 0 0 1-.31-.237 10.276 10.276 0 0 1-.52-.442l-.026-.023a11.758 11.758 0 0 1-.507-.499l-.072-.074a9.82 9.82 0 0 1-.223-.247l-.011-.012a9.237 9.237 0 0 1-.227-.27l-.06-.073a10.013 10.013 0 0 1-.222-.288 11.984 11.984 0 0 1-.188-.262c-1.7-2.42-2.31-5.757-.952-8.498"/>
  <path d="M12.88 9.34c-1.172 1.67-1.108 3.907-.194 5.675.154.296.326.583.52.857.175.25.37.546.603.746.085.093.173.182.263.27a7.617 7.617 0 0 0 .338.315c.004.004.007.008.011.01l.003.003c.102.088.207.173.314.257l.071.055c.107.081.216.161.329.238l.009.007.15.097.07.047c.08.05.162.1.244.148l.035.02c.07.04.143.08.215.118.025.015.05.027.076.04l.151.077.023.01c.103.05.207.1.314.145l.07.028c.084.036.17.071.256.104l.11.04c.08.029.158.055.237.081l.107.034c.113.035.224.079.342.098 6.055.993 7.453-3.623 7.453-3.623-1.26 1.797-3.7 2.655-6.305 1.985a7.458 7.458 0 0 1-.343-.098l-.103-.033a7.277 7.277 0 0 1-.24-.082l-.108-.04a8.066 8.066 0 0 1-.258-.103c-.023-.01-.047-.018-.07-.029a7.293 7.293 0 0 1-.316-.145l-.158-.08-.091-.047a7.503 7.503 0 0 1-.2-.112l-.049-.026a7.814 7.814 0 0 1-.243-.147l-.073-.049a8.371 8.371 0 0 1-.485-.34l-.073-.057c-1.14-.891-2.043-2.109-2.473-3.49-.45-1.432-.353-3.04.427-4.344"/>
  <path d="M17.516 7.72c-.606 1.027-.666 2.302-.245 3.436.443 1.203 1.352 2.147 2.413 2.595.043.019.087.036.131.053l.058.02c.063.023.125.05.19.064 2.93.652 3.725-1.732 3.937-2.082-.696 1.154-1.867 1.43-3.302 1.03a3.951 3.951 0 0 1-.76-.32 4.212 4.212 0 0 1-.724-.51C17.93 10.886 17.131 8.745 17.97 7"/>
</svg>
