<svg xmlns="http://www.w3.org/2000/svg" fill="currentColor" viewBox="0 0 32 32">
  <path d="M9 10v14h14V10H9Zm7.594 10.938c0 1.343-.782 1.968-1.969 1.968-1.031 0-1.656-.531-1.969-1.187l1.094-.657c.188.375.375.688.844.688.406 0 .687-.188.687-.844v-4.468h1.313v4.5Zm3.125 1.968c-1.219 0-2-.562-2.407-1.343l1.094-.594c.282.437.625.781 1.282.781.53 0 .906-.281.906-.656 0-.438-.375-.594-.969-.875l-.344-.125c-.937-.407-1.562-.907-1.562-2 0-.969.75-1.719 1.937-1.719.813 0 1.438.281 1.844 1.031l-1 .657c-.25-.375-.469-.563-.875-.563-.375 0-.625.25-.625.563 0 .406.25.562.813.812l.343.156c1.125.469 1.75.969 1.75 2.063 0 1.187-.937 1.812-2.187 1.812Z"/>
</svg>
