<svg xmlns="http://www.w3.org/2000/svg" fill="currentColor" viewBox="0 0 32 32">
  <path d="M21.063 13.563c-.188-.063-.344-.126-.5-.157 0-.125.03-.25.062-.375.375-1.844.125-3.344-.719-3.844-.812-.468-2.156.032-3.531 1.22-.125.093-.25.218-.375.343-.094-.094-.188-.156-.25-.25-1.438-1.25-2.875-1.781-3.719-1.281-.812.469-1.062 1.875-.719 3.656.032.156.063.344.126.5-.22.063-.407.125-.594.188C9.188 14.155 8 15.063 8 16c0 .969 1.25 1.969 3 2.563.125.03.281.093.406.125-.031.187-.062.375-.125.562-.312 1.719-.062 3.094.75 3.563.844.5 2.281 0 3.656-1.22.094-.093.22-.187.313-.28.156.125.281.25.438.375 1.343 1.156 2.656 1.625 3.468 1.156.844-.5 1.125-1.969.782-3.782-.032-.125-.063-.28-.094-.406l.281-.093C22.688 17.968 24 17 24 16c0-.938-1.25-1.875-2.938-2.438Zm-4.25-2.657C18 9.875 19.063 9.5 19.563 9.781c.53.281.75 1.531.406 3.125-.032.125-.032.219-.063.313a16.603 16.603 0 0 0-2.125-.313 17.384 17.384 0 0 0-1.312-1.687c.125-.094.218-.219.343-.313Zm-3.594 6.719c.156.281.312.531.5.813-.5-.063-1-.125-1.469-.25.156-.438.313-.907.5-1.375.156.28.313.53.469.812Zm-.969-3.75c.469-.125.938-.188 1.438-.25-.157.25-.313.531-.47.781-.155.281-.312.531-.468.813a37.189 37.189 0 0 1-.5-1.344Zm.875 2.156c.188-.437.438-.875.656-1.281.25-.406.5-.813.781-1.219.47-.031.938-.062 1.438-.062.469 0 .969.031 1.406.062.282.406.532.813.782 1.219.218.406.468.813.656 1.25a9.908 9.908 0 0 1-.657 1.281l-.75 1.219c-.468.031-.968.063-1.437.063-.5 0-.969-.032-1.438-.063a26.462 26.462 0 0 1-.78-1.219c-.22-.406-.438-.843-.657-1.25Zm5.625 1.594c.188-.281.313-.563.469-.844.187.469.375.907.531 1.375-.5.125-.969.219-1.469.25.157-.25.313-.531.469-.781Zm.469-2.406c-.157-.281-.313-.531-.469-.813-.156-.25-.313-.531-.469-.781.5.063 1 .156 1.438.25-.157.469-.313.906-.5 1.344ZM16 11.719c.313.344.625.719.906 1.125a18.11 18.11 0 0 0-1.843 0c.312-.406.624-.781.937-1.125ZM12.375 9.78c.531-.281 1.688.156 2.906 1.219.094.094.156.156.25.219a13.84 13.84 0 0 0-1.344 1.687 15.37 15.37 0 0 0-2.093.313 2.334 2.334 0 0 1-.125-.5c-.281-1.5-.094-2.625.406-2.938Zm-.781 8.25c-.125-.031-.25-.062-.375-.125-.656-.218-1.438-.531-1.969-.968A1.448 1.448 0 0 1 8.656 16c0-.563 1-1.313 2.406-1.813.188-.062.376-.093.563-.156.188.688.469 1.344.75 2-.313.625-.563 1.313-.781 2Zm3.656 3.063a5.831 5.831 0 0 1-1.781 1.093c-.344.188-.719.188-1.094.063-.5-.313-.688-1.406-.406-2.875.031-.188.062-.375.094-.531.718.156 1.406.25 2.124.312.407.563.876 1.125 1.344 1.657l-.281.28Zm.75-.75a12.511 12.511 0 0 1-.938-1.157c.313.032.626.032.938.032.313 0 .625 0 .938-.032-.282.407-.594.782-.938 1.157Zm4.094.937a1.47 1.47 0 0 1-.5.969c-.5.281-1.563-.094-2.719-1.063-.125-.125-.25-.25-.406-.375.5-.53.937-1.062 1.343-1.656a16.68 16.68 0 0 0 2.125-.343l.094.375c.125.687.157 1.406.063 2.093Zm.562-3.375c-.093.032-.156.063-.25.094-.218-.688-.5-1.344-.812-2 .312-.625.562-1.281.781-1.969.156.063.313.094.469.156 1.437.5 2.468 1.25 2.468 1.813 0 .594-1.093 1.406-2.656 1.906ZM16 17.438c.781 0 1.406-.625 1.406-1.438A1.4 1.4 0 0 0 16 14.594c-.813 0-1.438.625-1.438 1.406 0 .813.626 1.438 1.438 1.438Z"/>
</svg>
