<svg xmlns="http://www.w3.org/2000/svg" fill="currentColor" viewBox="0 0 32 32">
  <path d="M9.906 13.313c-.375.812-.562 1.75-.562 2.687 0 2.656 1.531 4.906 3.75 6l-3.188-8.688Zm10.563 2.374c0-.843-.282-1.406-.532-1.843-.343-.531-.656-1-.656-1.563 0-.594.469-1.187 1.094-1.187.031 0 .063 0 .094.031A6.56 6.56 0 0 0 16 9.375a6.61 6.61 0 0 0-5.563 3h.407c.719 0 1.781-.094 1.781-.094.375-.031.406.5.063.563 0 0-.376.031-.782.062l2.438 7.188 1.437-4.375-1.031-2.813-.688-.062c-.374-.031-.312-.594.032-.563 0 0 1.094.094 1.75.094.687 0 1.781-.094 1.781-.094.344-.031.406.5.031.563 0 0-.343.031-.75.062l2.407 7.125.656-2.218c.281-.907.5-1.563.5-2.125Zm-4.375.907-2 5.812c.625.157 1.25.25 1.906.25.75 0 1.5-.125 2.188-.375 0-.031-.032-.062-.032-.093l-2.062-5.594Zm5.718-3.782c.032.22.063.438.063.688 0 .688-.125 1.438-.531 2.375l-2.032 5.875A6.593 6.593 0 0 0 22.625 16a6.532 6.532 0 0 0-.813-3.188ZM23.75 16c0-4.25-3.5-7.75-7.75-7.75-4.281 0-7.75 3.5-7.75 7.75A7.749 7.749 0 0 0 16 23.75c4.25 0 7.75-3.469 7.75-7.75Zm-.375 0c0 4.094-3.313 7.406-7.375 7.406A7.402 7.402 0 0 1 8.594 16c0-4.063 3.312-7.375 7.406-7.375 4.063 0 7.375 3.313 7.375 7.375Z"/>
</svg>
