<svg xmlns="http://www.w3.org/2000/svg" fill="currentColor" viewBox="0 0 32 32">
  <path d="M16 11.281c5.344 0 9.469 2.25 9.469 4.719 0 2.5-4.125 4.75-9.469 4.75-5.375 0-9.5-2.25-9.5-4.75 0-2.469 4.125-4.719 9.5-4.719Zm0-.531c-5.531 0-10 2.344-10 5.25s4.469 5.281 10 5.281c5.5 0 10-2.375 10-5.281 0-2.906-4.5-5.25-10-5.25Zm-3.188 4.844c-.25 1.25-1.124 1.125-2.187 1.125l.406-2.188c1.188 0 2-.125 1.781 1.063Zm-3.78 3.375h1.155l.25-1.407c1.282 0 2.094.094 2.844-.593.813-.75 1-2.094.438-2.75-.313-.344-.781-.531-1.469-.531h-2.188l-1.03 5.28Zm5.812-6.688-1.031 5.281h1.124l.594-3.03c.938 0 1.313-.032 1.5.155.157.188.063.376-.406 2.876h1.156c.5-2.563.719-3.125.25-3.532-.437-.406-1.343-.344-2.343-.344l.28-1.406h-1.124Zm6.937 3.313c-.25 1.281-1.156 1.125-2.218 1.125L20 14.53c1.188 0 2-.125 1.781 1.063ZM18 18.969h1.156l.25-1.407c1.344 0 2.094.063 2.813-.593.843-.75 1.031-2.094.468-2.75-.312-.344-.812-.531-1.468-.531H19.03L18 18.968Z"/>
</svg>
