<svg xmlns="http://www.w3.org/2000/svg" width="20" height="20" fill="none" viewBox="0 0 20 20">
  <path fill="#000" d="M3 3.25v14h14v-14H3Zm7.594 10.938c0 1.343-.781 1.968-1.969 1.968-1.031 0-1.656-.531-1.969-1.187l1.094-.656c.188.374.375.687.844.687.406 0 .687-.188.687-.844V9.687h1.313v4.5Zm3.125 1.968c-1.219 0-2-.562-2.406-1.343l1.093-.594c.281.437.625.781 1.281.781.532 0 .907-.281.907-.656 0-.438-.375-.594-.969-.875l-.344-.125c-.937-.406-1.562-.906-1.562-2 0-.969.75-1.719 1.937-1.719.813 0 1.438.281 1.844 1.031l-1 .656c-.25-.374-.469-.562-.875-.562-.375 0-.625.25-.625.563 0 .406.25.562.813.812l.343.156c1.125.469 1.75.969 1.75 2.063 0 1.187-.937 1.812-2.187 1.812Z"/>
</svg>
