<svg xmlns="http://www.w3.org/2000/svg" width="20" height="20" fill="none" viewBox="0 0 20 20">
  <path fill-rule="evenodd" d="m16.698 13.06-.058.151c-.989 1.931-2.746 3.115-5.255 3.167a7.305 7.305 0 0 1-3.016-.603 7.793 7.793 0 0 1-3.62-3.42c-1.038-2.007-1.225-4.802.932-6.89.033 0-.26.454-.229.454l-.058.194c-1.555 4.863 3.232 9.032 7.886 8.556 1.118-.116 2.543-.727 3.42-1.61" clip-rule="evenodd"/>
  <path fill-rule="evenodd" d="M13.882 11.049c1.173.007 2.394-.54 3.118-1.307-.633 1.606-2.468 2.641-4.927 2.313-2.06-.275-4.023-2.35-4.224-4.427-.148-1.51.38-2.413 1.246-3.507-.3.572-.414 1.013-.441 1.295-.33 3.27 2.611 5.615 5.228 5.631" clip-rule="evenodd"/>
  <path fill-rule="evenodd" d="M16.883 6.987c-.182.418-1.23 1.206-1.693 1.304-1.831.391-3.005-.477-3.62-1.466a4.413 4.413 0 0 1-.29-.654c-.239-.811-.13-2.037.582-2.671-.214.604-.246 1.303-.133 1.76.068.275.276.756.485 1.058.379.55.62.685 1.105.979.22.13.455.237.558.266.462.135 1.436.492 3.006-.576" clip-rule="evenodd"/>
</svg>
