<svg xmlns="http://www.w3.org/2000/svg" width="20" height="20" fill="none">
  <path fill="#000" d="M12.188 7.813a5.104 5.104 0 0 0-.626-.532.518.518 0 0 0-.656.032l-.656.656c-.25.281-.375.625-.375.937 0 .188.094.313.219.406.094.063.219.157.344.25.874.907.874 2.313 0 3.188l-2.126 2.094a2.208 2.208 0 0 1-3.187 0c-.875-.875-.844-2.313.031-3.188l.407-.406c.156-.125.187-.344.125-.531a5.977 5.977 0 0 1-.313-1.625.493.493 0 0 0-.844-.344L3.375 9.906c-1.844 1.844-1.844 4.875 0 6.719 1.844 1.844 4.875 1.844 6.719 0l2.094-2.094V14.5c1.843-1.813 1.874-4.813 0-6.688Zm4.406-4.407c-1.844-1.844-4.875-1.844-6.719 0L7.781 5.5v.031c-1.843 1.813-1.875 4.813 0 6.688.188.187.407.375.625.531a.518.518 0 0 0 .656-.031l.657-.656c.25-.282.375-.626.375-.938a.488.488 0 0 0-.219-.406c-.094-.063-.219-.156-.344-.25-.875-.906-.875-2.313 0-3.188l2.125-2.093a2.208 2.208 0 0 1 3.188 0c.875.875.844 2.312-.031 3.187l-.407.406c-.156.125-.187.344-.125.531.188.532.281 1.094.313 1.626 0 .437.531.656.844.343l1.156-1.156c1.843-1.844 1.843-4.875 0-6.719Z"/>
</svg>
