<svg xmlns="http://www.w3.org/2000/svg" width="20" height="20" fill="none" viewBox="0 0 20 20">
  <path d="M10 6.612c4.285 0 7.58 1.806 7.58 3.788 0 1.982-3.297 3.787-7.58 3.787-4.285 0-7.58-1.804-7.58-3.787 0-1.982 3.298-3.788 7.58-3.788Zm0-.42c-4.418 0-8 1.883-8 4.208s3.582 4.207 8 4.207 8-1.882 8-4.207-3.582-4.208-8-4.208Zm-2.545 3.87c-.197 1.013-.895.908-1.753.908l.343-1.765c.95 0 1.595-.103 1.41.857Zm-3.02 2.696h.918l.217-1.12c1.027 0 1.665.075 2.255-.478.652-.6.823-1.668.357-2.203-.242-.28-.632-.417-1.162-.417H5.253l-.818 4.218Zm4.643-5.34h.912l-.217 1.12c.787 0 1.517-.058 1.87.267.37.34.192.775-.208 2.828h-.925c.385-1.985.457-2.15.318-2.3-.135-.146-.443-.116-1.185-.116l-.47 2.415H8.26l.818-4.214Zm5.547 2.644c-.2 1.028-.918.908-1.752.908l.342-1.765c.955 0 1.595-.103 1.41.857Zm-3.02 2.696h.92l.217-1.12c1.08 0 1.678.062 2.255-.478.653-.6.823-1.668.358-2.203-.242-.28-.633-.417-1.162-.417h-1.768l-.82 4.218Z"/>
</svg>
