<svg xmlns="http://www.w3.org/2000/svg" width="20" height="20" fill="none">
  <path fill="#000" d="M3.906 7.313c-.375.812-.562 1.75-.562 2.687 0 2.656 1.531 4.906 3.75 6L3.906 7.312ZM14.47 9.688c0-.844-.281-1.407-.531-1.844-.344-.532-.657-1-.657-1.563 0-.593.469-1.187 1.094-1.187.031 0 .063 0 .094.031A6.56 6.56 0 0 0 10 3.375a6.61 6.61 0 0 0-5.563 3h.407c.718 0 1.781-.094 1.781-.094.375-.031.406.5.063.563 0 0-.375.031-.782.062l2.438 7.188L9.78 9.719 8.75 6.906l-.688-.062c-.374-.032-.312-.594.032-.563 0 0 1.094.094 1.75.094.687 0 1.781-.094 1.781-.094.344-.031.406.5.031.563 0 0-.344.031-.75.062l2.406 7.125.657-2.219c.281-.906.5-1.562.5-2.124Zm-4.375.906-2 5.812c.625.157 1.25.25 1.906.25.75 0 1.5-.125 2.188-.375 0-.031-.032-.062-.032-.093l-2.062-5.594Zm5.719-3.781c.03.218.062.437.062.687 0 .688-.125 1.438-.531 2.375l-2.031 5.875A6.593 6.593 0 0 0 16.625 10a6.532 6.532 0 0 0-.813-3.188ZM17.75 10c0-4.25-3.5-7.75-7.75-7.75-4.281 0-7.75 3.5-7.75 7.75A7.749 7.749 0 0 0 10 17.75c4.25 0 7.75-3.469 7.75-7.75Zm-.375 0c0 4.094-3.313 7.406-7.375 7.406A7.402 7.402 0 0 1 2.594 10c0-4.063 3.312-7.375 7.406-7.375 4.063 0 7.375 3.313 7.375 7.375Z"/>
</svg>
