<svg xmlns="http://www.w3.org/2000/svg" fill="currentColor" viewBox="0 0 32 32">
  <path d="M13.156 20.438c0-.063-.062-.125-.156-.125s-.156.062-.156.125c0 .062.062.125.156.093.094 0 .156-.031.156-.093Zm-.969-.157c0 .063.063.157.157.157a.15.15 0 0 0 .187-.063c0-.063-.031-.125-.125-.156-.094-.032-.187 0-.219.062Zm1.407-.031c-.094 0-.156.063-.156.156 0 .063.093.094.187.063.094-.032.156-.063.125-.125 0-.063-.094-.125-.156-.094Zm2.031-12C11.312 8.25 8 11.563 8 15.875c0 3.469 2.156 6.438 5.281 7.5.406.063.531-.188.531-.375v-1.938s-2.187.47-2.656-.937c0 0-.344-.906-.844-1.125 0 0-.718-.5.032-.5 0 0 .781.063 1.219.813.687 1.218 1.812.875 2.28.656.063-.5.25-.844.5-1.063-1.75-.187-3.53-.437-3.53-3.437 0-.875.25-1.281.75-1.844-.094-.219-.344-1.031.093-2.125.625-.188 2.156.844 2.156.844.626-.188 1.282-.25 1.938-.25.688 0 1.344.062 1.969.25 0 0 1.5-1.063 2.156-.844.438 1.094.156 1.906.094 2.125.5.563.812.969.812 1.844 0 3-1.843 3.25-3.593 3.437.28.25.53.719.53 1.469 0 1.031-.03 2.344-.03 2.594 0 .218.156.468.562.375 3.125-1.032 5.25-4 5.25-7.469 0-4.313-3.531-7.625-7.875-7.625Zm-4.594 10.781c-.062.032-.031.125 0 .188.063.031.125.062.188.031.031-.031.031-.125-.031-.188-.063-.03-.126-.062-.157-.03Zm-.344-.25c-.03.063 0 .094.063.125.063.032.125.032.156-.031 0-.031-.031-.063-.094-.094-.062-.031-.093-.031-.124 0Zm1 1.125c-.03.032-.03.125.063.188.063.062.156.093.188.031.03-.031.03-.125-.032-.188-.062-.062-.156-.093-.219-.03Zm-.343-.468c-.063.03-.063.125 0 .187.062.063.125.094.187.063.031-.032.031-.125 0-.188-.062-.063-.125-.094-.187-.063Z"/>
</svg>
