<svg xmlns="http://www.w3.org/2000/svg" fill="currentColor" viewBox="0 0 32 32">
  <path d="M15.406 20.844c0 .031 0 .031 0 0Zm7.781-2.719c-.625 0-1.25.156-1.812.438-.156-.375-.375-.688-.406-.938-.032-.281-.063-.469-.032-.781.063-.344.25-.844.25-.875 0-.031-.03-.188-.437-.188-.406 0-.75.063-.813.188a3.299 3.299 0 0 0-.156.594c-.062.343-.812 1.656-1.218 2.343-.125-.281-.25-.5-.282-.687-.031-.282-.062-.469-.031-.782.031-.343.25-.812.25-.875-.031-.03-.063-.187-.469-.187-.406 0-.75.063-.781.188a12.6 12.6 0 0 0-.156.593c-.094.219-1.063 2.407-1.313 2.969-.156.281-.25.531-.344.688 0 .03 0 .03-.03.03.03 0 .03-.03.03 0-.062.126-.124.188-.124.188-.032.125-.094.219-.126.219-.03 0-.062-.281 0-.625.157-.781.5-1.938.5-1.969 0-.031.063-.25-.218-.343-.313-.094-.406.062-.438.062l-.031.063s.313-1.313-.594-1.313c-.594 0-1.375.625-1.781 1.188-.25.125-.781.437-1.344.75-.219.093-.437.218-.656.343l-.031-.031c-1.125-1.219-3.188-2.063-3.094-3.656.031-.594.219-2.125 3.969-3.969 3.062-1.531 5.5-1.125 5.937-.188.594 1.344-1.312 3.813-4.5 4.157-1.219.125-1.844-.344-2-.5-.187-.188-.187-.188-.25-.156-.125.03-.062.218 0 .312.094.25.469.688 1.125.906.594.188 2.031.282 3.75-.375 1.906-.75 3.406-2.812 2.969-4.562C18.062 9.594 15.156 9 12.375 10c-1.656.563-3.438 1.5-4.719 2.688-1.5 1.437-1.75 2.656-1.656 3.187.375 1.844 2.906 3.031 3.906 3.938-.031.03-.094.03-.125.062-.531.25-2.437 1.281-2.937 2.344-.532 1.218.093 2.093.5 2.187 1.312.375 2.656-.281 3.375-1.343.719-1.094.625-2.47.281-3.125v-.032c.125-.062.281-.156.406-.218.25-.157.5-.282.719-.407-.125.313-.219.719-.25 1.313-.063.687.219 1.593.594 1.937.156.157.375.157.469.157.437 0 .624-.344.843-.782.281-.531.5-1.125.5-1.125s-.281 1.625.531 1.625c.282 0 .563-.375.72-.562v-.032a.386.386 0 0 1 .062-.093c.125-.188.375-.657.75-1.438.531-1 1-2.218 1-2.218.062.25.125.53.187.78.094.313.282.626.438.938l-.188.282c-.093.125-.218.25-.312.375-.407.5-.875 1.03-.938 1.187-.093.188-.062.313.094.438.094.062.281.093.469.062.375-.031.625-.094.75-.156.218-.094.437-.188.625-.344.406-.281.625-.688.593-1.25 0-.281-.093-.594-.218-.875.031-.031.062-.094.125-.156.593-.907 1.093-1.907 1.093-1.907.032.282.094.563.188.813.063.25.219.531.344.813-.563.468-.938 1.03-1.063 1.375-.218.656-.031.968.282 1.03.156.032.375-.03.562-.093.219-.094.469-.219.656-.344.407-.312.782-.718.75-1.25 0-.25-.093-.5-.187-.718.5-.22 1.156-.344 1.968-.25 1.72.218 2.063 1.312 2 1.75-.062.468-.437.718-.562.78-.125.095-.156.095-.125.157 0 .094.063.094.156.063.157-.032.907-.375.938-1.22.062-1.062-.969-2.218-2.782-2.218ZM9.781 22.656c-.562.625-1.375.875-1.719.657-.374-.22-.218-1.125.5-1.813.407-.406.97-.781 1.344-1 .094-.063.188-.125.344-.219.031 0 .031-.031.031-.031.031 0 .063-.031.094-.031.281.937.031 1.781-.594 2.437ZM14 19.813c-.219.468-.625 1.718-.875 1.656-.219-.032-.375-1-.063-1.938.157-.468.5-1.031.688-1.25.313-.343.656-.468.75-.312.094.156-.375 1.531-.5 1.843Zm3.469 1.656c-.094.031-.188.062-.219.031-.031 0 .031-.063.031-.063s.438-.468.625-.687c.094-.125.219-.25.344-.438v.063c0 .563-.563.938-.781 1.094Zm2.656-.625c-.063-.032-.031-.188.156-.625.094-.188.282-.5.594-.782.031.094.063.22.063.344 0 .688-.5.969-.813 1.063Z"/>
</svg>
