<svg width="100" height="23" viewBox="0 0 100 23" fill="none" xmlns="http://www.w3.org/2000/svg">
<path d="M17.528 10.828L17.444 17.576H18.172C19.2173 15.3547 20.1787 12.984 21.056 10.464C21.9333 7.92533 22.372 5.99333 22.372 4.668C22.372 4.14533 22.2693 3.64133 22.064 3.156C23.4827 2.18533 24.7893 1.7 25.984 1.7C27.8507 1.7 28.784 2.75467 28.784 4.864C28.784 5.90933 28.4947 7.23467 27.916 8.84C27.356 10.4267 26.516 12.424 25.396 14.832C24.276 17.2213 23.6787 18.5093 23.604 18.696L23.996 20.236C22.3907 21.8787 20.384 22.7 17.976 22.7C15.568 22.7 14.0467 22.2613 13.412 21.384C11.844 22.2613 10.164 22.7 8.372 22.7C6.58 22.7 5.292 22.4387 4.508 21.916C3.724 21.3933 3.332 20.516 3.332 19.284L3.36 14.132C3.36 9.85733 2.83733 6.84267 1.792 5.088C1.30667 4.28533 0.709333 3.64133 0 3.156C1.26933 2.18533 2.72533 1.7 4.368 1.7C5.86133 1.7 6.972 2.288 7.7 3.464C8.428 4.62133 8.904 6.012 9.128 7.636C9.31467 9.11067 9.408 10.856 9.408 12.872L9.324 17.576H10.052C11.116 15.2613 12.012 12.5173 12.74 9.344C12.5533 7.552 12.1427 5.75067 11.508 3.94C12.1987 3.39867 12.8427 3.016 13.44 2.792C14.0373 2.54933 14.8307 2.428 15.82 2.428C17.8547 2.428 18.872 3.37067 18.872 5.256C18.872 6.376 18.424 8.23333 17.528 10.828ZM40.4482 18.556L40.1682 18.416C39.6642 19.76 38.9362 20.8147 37.9842 21.58C37.0509 22.3267 36.0055 22.7 34.8482 22.7C33.2615 22.7 31.9922 22.1027 31.0402 20.908C30.0882 19.7133 29.6122 18.1173 29.6122 16.12C29.6122 13.0213 30.6482 10.4267 32.7202 8.336C34.8109 6.24533 37.4055 5.2 40.5042 5.2C41.3069 5.2 42.0442 5.27467 42.7162 5.424C42.8282 5.94667 42.8935 6.404 42.9122 6.796C43.8455 6.19867 44.8069 5.9 45.7962 5.9C47.1589 5.9 47.8402 6.63733 47.8402 8.112C47.8402 8.63467 47.5415 10.212 46.9442 12.844C46.3655 15.476 46.0762 17.4267 46.0762 18.696C46.0762 19.9653 46.3655 20.8427 46.9442 21.328C45.8989 22.2427 44.8069 22.7 43.6682 22.7C42.5482 22.7 41.7269 22.364 41.2042 21.692C40.7002 21.02 40.4482 19.9747 40.4482 18.556ZM34.8762 14.748C34.8762 15.6627 35.0629 16.372 35.4362 16.876C35.8282 17.3613 36.3789 17.604 37.0882 17.604C37.7975 17.604 38.4975 17.3427 39.1882 16.82C39.8789 16.2973 40.4575 15.5787 40.9242 14.664C41.0922 12.7787 41.4562 10.548 42.0162 7.972C40.1309 7.972 38.4695 8.65333 37.0322 10.016C35.5949 11.3787 34.8762 12.956 34.8762 14.748ZM53.2814 4.584L51.7134 2.344C54.0467 0.981332 55.8854 0.299999 57.2294 0.299999C57.9947 0.299999 58.536 0.458666 58.8534 0.776C59.1707 1.07467 59.3294 1.65333 59.3294 2.512C59.3294 3.352 58.9094 5.74133 58.0694 9.68C57.248 13.6187 56.8374 16.3813 56.8374 17.968C56.8374 19.5547 57.1267 20.6747 57.7054 21.328C56.3987 22.2427 55.2134 22.7 54.1494 22.7C53.0854 22.7 52.3014 22.3547 51.7974 21.664C51.312 20.9547 51.0694 19.984 51.0694 18.752C51.0694 17.52 51.4147 15 52.1054 11.192C52.796 7.384 53.188 5.18133 53.2814 4.584ZM64.0548 4.584L62.4868 2.344C64.8201 0.981332 66.6588 0.299999 68.0028 0.299999C68.7681 0.299999 69.3095 0.458666 69.6268 0.776C69.9441 1.07467 70.1028 1.65333 70.1028 2.512C70.1028 3.352 69.6828 5.74133 68.8428 9.68C68.0215 13.6187 67.6108 16.3813 67.6108 17.968C67.6108 19.5547 67.9001 20.6747 68.4788 21.328C67.1721 22.2427 65.9868 22.7 64.9228 22.7C63.8588 22.7 63.0748 22.3547 62.5708 21.664C62.0855 20.9547 61.8428 19.984 61.8428 18.752C61.8428 17.52 62.1881 15 62.8788 11.192C63.5695 7.384 63.9615 5.18133 64.0548 4.584ZM79.9243 22.7C77.3669 22.7 75.3883 22.0373 73.9883 20.712C72.6069 19.3867 71.9163 17.5947 71.9163 15.336C71.9163 12.3307 72.9429 9.89467 74.9963 8.028C77.0683 6.14267 79.6629 5.2 82.7803 5.2C84.5163 5.2 85.8323 5.592 86.7283 6.376C87.6243 7.14133 88.0723 8.15867 88.0723 9.428C88.0723 11.164 87.2229 12.6107 85.5243 13.768C83.8443 14.9067 81.2403 15.4853 77.7123 15.504C77.7683 16.6987 78.0389 17.6413 78.5243 18.332C79.0096 19.004 79.6163 19.34 80.3443 19.34C81.0723 19.34 81.6976 19.0973 82.2203 18.612C82.7616 18.1267 83.0323 17.3333 83.0323 16.232C85.7576 16.232 87.1202 16.876 87.1202 18.164C87.1202 19.2653 86.4483 20.3013 85.1043 21.272C83.7603 22.224 82.0336 22.7 79.9243 22.7ZM82.3043 8.476C81.3523 8.476 80.4749 8.952 79.6723 9.904C78.8883 10.856 78.3189 11.976 77.9643 13.264C79.8309 13.1147 81.2309 12.6947 82.1643 12.004C83.1163 11.2947 83.5923 10.548 83.5923 9.764C83.5923 9.39067 83.4709 9.08267 83.2283 8.84C83.0043 8.59733 82.6963 8.476 82.3043 8.476ZM93.2306 4.584L91.6626 2.344C93.9959 0.981332 95.8346 0.299999 97.1786 0.299999C97.9439 0.299999 98.4853 0.458666 98.8026 0.776C99.1199 1.07467 99.2786 1.65333 99.2786 2.512C99.2786 3.352 98.8586 5.74133 98.0186 9.68C97.1973 13.6187 96.7866 16.3813 96.7866 17.968C96.7866 19.5547 97.0759 20.6747 97.6546 21.328C96.3479 22.2427 95.1626 22.7 94.0986 22.7C93.0346 22.7 92.2506 22.3547 91.7466 21.664C91.2613 20.9547 91.0186 19.984 91.0186 18.752C91.0186 17.52 91.3639 15 92.0546 11.192C92.7453 7.384 93.1373 5.18133 93.2306 4.584Z" fill="currentColor"/>
</svg>
