<svg xmlns="http://www.w3.org/2000/svg" width="20" height="20" fill="none">
  <path fill="#000" d="M7.156 14.438c0-.063-.062-.126-.156-.126s-.156.063-.156.126c0 .062.062.124.156.093.094 0 .156-.031.156-.094Zm-.968-.157c0 .063.062.156.156.156a.15.15 0 0 0 .187-.062c0-.063-.031-.125-.125-.156-.093-.031-.187 0-.218.062Zm1.406-.031c-.094 0-.157.063-.157.156 0 .063.094.094.188.063s.156-.063.125-.125c0-.063-.094-.125-.156-.094Zm2.031-12C5.312 2.25 2 5.563 2 9.875c0 3.469 2.156 6.438 5.281 7.5.407.063.532-.188.532-.375v-1.938s-2.188.47-2.657-.937c0 0-.343-.906-.843-1.125 0 0-.72-.5.03-.5 0 0 .782.063 1.22.813.687 1.218 1.812.874 2.28.656.063-.5.25-.844.5-1.063-1.75-.187-3.53-.437-3.53-3.437 0-.875.25-1.281.75-1.844-.094-.219-.344-1.031.093-2.125.625-.188 2.157.844 2.157.844.625-.188 1.28-.25 1.937-.25.688 0 1.344.062 1.969.25 0 0 1.5-1.063 2.156-.844.438 1.094.156 1.906.094 2.125.5.563.812.969.812 1.844 0 3-1.844 3.25-3.594 3.437.282.25.532.719.532 1.469 0 1.031-.031 2.344-.031 2.594 0 .218.156.468.562.375 3.125-1.032 5.25-4 5.25-7.469 0-4.313-3.531-7.625-7.875-7.625ZM5.031 13.031c-.062.031-.031.125 0 .188.063.031.125.062.188.031.031-.031.031-.125-.032-.188-.062-.03-.125-.062-.156-.03Zm-.343-.25c-.032.063 0 .094.062.125.063.031.125.031.156-.031 0-.031-.031-.063-.093-.094-.063-.031-.094-.031-.125 0Zm1 1.125c-.032.031-.032.125.062.188.063.062.156.094.188.031.03-.031.03-.125-.032-.188-.062-.062-.156-.093-.218-.03Zm-.344-.469c-.063.032-.063.126 0 .188.062.063.125.094.187.063.032-.032.032-.126 0-.188-.062-.063-.125-.094-.187-.063Z"/>
</svg>
