<svg xmlns="http://www.w3.org/2000/svg" width="22" height="20" fill="none">
  <path fill="#000" d="M10.406 13.844c0 .031 0 .031 0 0Zm7.781-2.719c-.625 0-1.25.156-1.812.438-.156-.376-.375-.688-.406-.938-.031-.281-.063-.469-.031-.781.062-.344.25-.844.25-.875 0-.031-.032-.188-.438-.188s-.75.063-.813.188c-.062.187-.124.375-.156.594-.062.343-.812 1.656-1.219 2.343-.124-.281-.25-.5-.28-.687-.032-.281-.063-.469-.032-.781.031-.344.25-.813.25-.876-.031-.03-.063-.187-.469-.187-.406 0-.75.063-.781.188-.031.093-.094.343-.156.593-.094.219-1.063 2.406-1.313 2.969-.156.281-.25.531-.344.688 0 .03 0 .03-.03.03.03 0 .03-.03.03 0-.062.126-.124.188-.124.188-.032.125-.094.219-.126.219-.03 0-.062-.281 0-.625.157-.781.5-1.938.5-1.969 0-.031.063-.25-.218-.344-.313-.093-.406.063-.438.063l-.031.063s.313-1.313-.594-1.313c-.594 0-1.375.625-1.781 1.188-.25.124-.781.437-1.344.75-.218.093-.437.218-.656.343l-.031-.031C4.469 11.156 2.406 10.312 2.5 8.719c.031-.594.219-2.125 3.969-3.969 3.062-1.531 5.5-1.125 5.937-.188.594 1.344-1.312 3.813-4.5 4.157-1.218.125-1.843-.344-2-.5-.187-.188-.187-.188-.25-.156-.125.03-.062.218 0 .312.094.25.469.688 1.125.906.594.188 2.032.281 3.75-.375 1.906-.75 3.406-2.812 2.969-4.562C13.062 2.594 10.156 2 7.375 3c-1.656.563-3.438 1.5-4.719 2.688C1.156 7.125.906 8.344 1 8.874c.375 1.844 2.906 3.031 3.906 3.938-.031.03-.093.03-.125.062-.531.25-2.437 1.281-2.937 2.344-.532 1.219.093 2.094.5 2.187 1.312.375 2.656-.281 3.375-1.343.718-1.094.625-2.47.281-3.125v-.032c.125-.062.281-.156.406-.219.25-.156.5-.28.719-.406-.125.313-.219.719-.25 1.313-.063.687.219 1.594.594 1.937.156.156.375.156.468.156.438 0 .625-.343.844-.78.281-.532.5-1.126.5-1.126s-.281 1.625.531 1.625c.282 0 .563-.375.72-.562v-.031c.03-.063.062-.094.062-.094.125-.188.375-.656.75-1.438.531-1 1-2.219 1-2.219.062.25.125.532.187.782.094.312.281.625.438.937l-.188.281c-.094.126-.219.25-.312.376-.406.5-.875 1.03-.938 1.187-.094.188-.062.313.094.438.094.062.281.093.469.062.375-.031.625-.094.75-.156.219-.094.437-.188.625-.344.406-.281.625-.688.594-1.25 0-.281-.094-.594-.22-.875.032-.031.063-.094.126-.156a21.762 21.762 0 0 0 1.094-1.906c.03.28.093.562.187.812.063.25.219.531.344.813-.563.468-.938 1.03-1.063 1.374-.219.657-.031.97.281 1.032.157.031.376-.031.563-.094.219-.094.469-.219.656-.344.407-.312.782-.719.75-1.25 0-.25-.093-.5-.187-.719.5-.218 1.156-.343 1.968-.25 1.72.22 2.063 1.313 2 1.75-.062.47-.437.72-.562.782-.125.094-.156.094-.125.156 0 .094.063.094.156.063.157-.032.907-.376.938-1.22.062-1.062-.969-2.218-2.782-2.218ZM4.781 15.656c-.562.625-1.375.875-1.718.656-.376-.218-.22-1.125.5-1.812.406-.406.968-.781 1.343-1 .094-.063.188-.125.344-.219.031 0 .031-.031.031-.031.032 0 .063-.031.094-.031.281.937.031 1.781-.594 2.437ZM9 12.812c-.219.47-.625 1.72-.875 1.657-.219-.031-.375-1-.063-1.938.157-.469.5-1.031.688-1.25.313-.344.656-.469.75-.312.094.156-.375 1.531-.5 1.844Zm3.469 1.657c-.094.031-.188.062-.219.031-.031 0 .031-.063.031-.063s.438-.468.625-.687c.094-.125.219-.25.344-.438v.063c0 .563-.563.938-.781 1.094Zm2.656-.625c-.063-.031-.031-.188.156-.625.094-.188.281-.5.594-.781.031.093.063.218.063.343 0 .688-.5.969-.813 1.063Z"/>
</svg>
